<svg width="42" height="13" viewBox="0 0 42 13" fill="none" xmlns="http://www.w3.org/2000/svg">
<mask id="path-1-outside-1_0_172" maskUnits="userSpaceOnUse" x="-0.30957" y="0" width="42" height="13" fill="black">
<rect fill="white" x="-0.30957" width="42" height="13"/>
<path d="M5.12847 12C4.41344 12 3.76207 11.9074 3.17437 11.7221C2.58667 11.527 2.09202 11.2735 1.69043 10.9614L2.39567 9.79122C2.74829 10.0838 3.14499 10.3227 3.58576 10.508C4.02654 10.6933 4.54077 10.7859 5.12847 10.7859C5.83371 10.7859 6.39203 10.6396 6.80342 10.3471C7.2148 10.0545 7.4205 9.65957 7.4205 9.16223C7.4205 8.87943 7.36173 8.63076 7.24419 8.41622C7.12665 8.19193 6.89647 7.97739 6.55364 7.77261C6.22061 7.55807 5.72597 7.3289 5.0697 7.08511C4.36446 6.81206 3.80125 6.53901 3.38007 6.26596C2.95888 5.98316 2.65524 5.66622 2.46913 5.31516C2.29282 4.95434 2.20467 4.53014 2.20467 4.04255C2.20467 3.55496 2.3369 3.11613 2.60136 2.72606C2.87562 2.32624 3.27232 2.00931 3.79146 1.77527C4.32038 1.53147 4.95706 1.40957 5.70148 1.40957C6.30877 1.40957 6.85239 1.47296 7.33235 1.59973C7.82209 1.71675 8.29715 1.88741 8.75752 2.1117L8.24328 3.29654C7.91025 3.10151 7.51845 2.9406 7.06788 2.81383C6.62711 2.6773 6.16184 2.60904 5.67209 2.60904C5.02562 2.60904 4.51629 2.73581 4.14408 2.98936C3.77187 3.24291 3.58576 3.56959 3.58576 3.96941C3.58576 4.22296 3.63963 4.44725 3.74738 4.64229C3.85512 4.83732 4.06572 5.02748 4.37915 5.21277C4.70239 5.39805 5.18234 5.60771 5.81902 5.84176C6.58303 6.12456 7.18542 6.42199 7.62619 6.73404C8.07676 7.0461 8.3951 7.38741 8.58121 7.75798C8.76731 8.11879 8.86036 8.53324 8.86036 9.00133C8.86036 9.63519 8.69875 10.1764 8.37551 10.625C8.06207 11.0736 7.6213 11.4149 7.05319 11.6489C6.49487 11.883 5.8533 12 5.12847 12Z"/>
<path d="M13.6995 12C13.0628 12 12.4849 11.8391 11.9658 11.5173C11.4466 11.1955 11.0303 10.742 10.7169 10.1569C10.4133 9.56206 10.2614 8.8648 10.2614 8.06516C10.2614 7.30452 10.4133 6.6219 10.7169 6.01729C11.0303 5.41268 11.4564 4.93484 11.9951 4.58378C12.5437 4.22296 13.1705 4.04255 13.8758 4.04255C14.3166 4.04255 14.7133 4.12057 15.0659 4.2766C15.4283 4.42287 15.7417 4.60816 16.0062 4.83245V4.21808H17.211V9.98138C17.211 10.352 17.2991 10.5957 17.4754 10.7128C17.6615 10.82 17.8623 10.8737 18.0778 10.8737L17.7987 11.8976C16.8584 11.8976 16.2902 11.5173 16.0943 10.7566C15.8691 11.0687 15.5605 11.3564 15.1687 11.6197C14.7867 11.8732 14.297 12 13.6995 12ZM13.9933 10.8298C14.3655 10.8298 14.7182 10.742 15.0512 10.5665C15.3842 10.3812 15.6634 10.152 15.8887 9.87899V5.79787C15.6242 5.61259 15.3303 5.46631 15.0071 5.35904C14.6937 5.24202 14.3606 5.18351 14.008 5.18351C13.5379 5.18351 13.1216 5.30541 12.7592 5.5492C12.4065 5.78324 12.1274 6.1148 11.9217 6.54388C11.716 6.96321 11.6131 7.45567 11.6131 8.02128C11.6131 8.56738 11.716 9.05496 11.9217 9.48404C12.1274 9.90337 12.4114 10.2349 12.7738 10.4787C13.1363 10.7128 13.5428 10.8298 13.9933 10.8298Z"/>
<path d="M22.1651 12C21.7145 12 21.308 11.9171 20.9456 11.7513C20.5832 11.5758 20.2943 11.2979 20.0788 10.9176C19.8731 10.5372 19.7702 10.0448 19.7702 9.44016V1H21.0925V9.30851C21.0925 9.83511 21.2003 10.2252 21.4158 10.4787C21.6411 10.7323 21.9496 10.859 22.3414 10.859C22.5275 10.859 22.7087 10.8395 22.885 10.8005C23.0711 10.7518 23.2279 10.6981 23.3552 10.6396L23.6784 11.7074C23.5021 11.7855 23.2817 11.8537 23.0173 11.9122C22.7626 11.9707 22.4785 12 22.1651 12Z"/>
<path d="M27.9254 12C27.2005 12 26.5492 11.8342 25.9713 11.5027C25.3934 11.1613 24.9379 10.6933 24.6049 10.0984C24.2816 9.49379 24.12 8.80142 24.12 8.02128C24.12 7.20213 24.2865 6.49512 24.6195 5.90027C24.9526 5.30541 25.408 4.84707 25.9859 4.52527C26.5639 4.20346 27.2103 4.04255 27.9254 4.04255C28.6404 4.04255 29.282 4.20346 29.8501 4.52527C30.428 4.84707 30.8834 5.30541 31.2165 5.90027C31.5593 6.48537 31.7307 7.18262 31.7307 7.99202C31.7307 8.80142 31.5642 9.50842 31.2312 10.113C30.8981 10.7079 30.4427 11.1711 29.8648 11.5027C29.2967 11.8342 28.6502 12 27.9254 12ZM27.9254 10.8298C28.6992 10.8298 29.3016 10.5714 29.7325 10.0545C30.1635 9.52793 30.379 8.85018 30.379 8.02128C30.379 7.51418 30.2713 7.05097 30.0558 6.63165C29.8403 6.20257 29.5464 5.86126 29.1742 5.60771C28.8118 5.34441 28.3955 5.21277 27.9254 5.21277C27.1516 5.21277 26.5492 5.46631 26.1182 5.9734C25.6872 6.4805 25.4717 7.15337 25.4717 7.99202C25.4717 8.49911 25.5795 8.97207 25.7949 9.4109C26.0104 9.83998 26.2994 10.1862 26.6618 10.4495C27.034 10.703 27.4552 10.8298 27.9254 10.8298Z"/>
<path d="M34.2698 11.8245V4.21808H35.5481V5.49069C35.8223 5.08112 36.17 4.7398 36.5912 4.46676C37.0222 4.18395 37.5315 4.04255 38.1192 4.04255C38.9812 4.04255 39.6228 4.30098 40.044 4.81782C40.4749 5.33466 40.6904 6.01729 40.6904 6.86569V11.8245H39.3681V7.01197C39.3681 6.46587 39.2359 6.02704 38.9714 5.69548C38.7167 5.36392 38.3592 5.19814 37.8989 5.19814C37.4483 5.19814 37.0222 5.35904 36.6206 5.68085C36.219 5.99291 35.8762 6.36347 35.5921 6.79255V11.8245H34.2698Z"/>
</mask>
<path d="M5.12847 12C4.41344 12 3.76207 11.9074 3.17437 11.7221C2.58667 11.527 2.09202 11.2735 1.69043 10.9614L2.39567 9.79122C2.74829 10.0838 3.14499 10.3227 3.58576 10.508C4.02654 10.6933 4.54077 10.7859 5.12847 10.7859C5.83371 10.7859 6.39203 10.6396 6.80342 10.3471C7.2148 10.0545 7.4205 9.65957 7.4205 9.16223C7.4205 8.87943 7.36173 8.63076 7.24419 8.41622C7.12665 8.19193 6.89647 7.97739 6.55364 7.77261C6.22061 7.55807 5.72597 7.3289 5.0697 7.08511C4.36446 6.81206 3.80125 6.53901 3.38007 6.26596C2.95888 5.98316 2.65524 5.66622 2.46913 5.31516C2.29282 4.95434 2.20467 4.53014 2.20467 4.04255C2.20467 3.55496 2.3369 3.11613 2.60136 2.72606C2.87562 2.32624 3.27232 2.00931 3.79146 1.77527C4.32038 1.53147 4.95706 1.40957 5.70148 1.40957C6.30877 1.40957 6.85239 1.47296 7.33235 1.59973C7.82209 1.71675 8.29715 1.88741 8.75752 2.1117L8.24328 3.29654C7.91025 3.10151 7.51845 2.9406 7.06788 2.81383C6.62711 2.6773 6.16184 2.60904 5.67209 2.60904C5.02562 2.60904 4.51629 2.73581 4.14408 2.98936C3.77187 3.24291 3.58576 3.56959 3.58576 3.96941C3.58576 4.22296 3.63963 4.44725 3.74738 4.64229C3.85512 4.83732 4.06572 5.02748 4.37915 5.21277C4.70239 5.39805 5.18234 5.60771 5.81902 5.84176C6.58303 6.12456 7.18542 6.42199 7.62619 6.73404C8.07676 7.0461 8.3951 7.38741 8.58121 7.75798C8.76731 8.11879 8.86036 8.53324 8.86036 9.00133C8.86036 9.63519 8.69875 10.1764 8.37551 10.625C8.06207 11.0736 7.6213 11.4149 7.05319 11.6489C6.49487 11.883 5.8533 12 5.12847 12Z" fill="white"/>
<path d="M13.6995 12C13.0628 12 12.4849 11.8391 11.9658 11.5173C11.4466 11.1955 11.0303 10.742 10.7169 10.1569C10.4133 9.56206 10.2614 8.8648 10.2614 8.06516C10.2614 7.30452 10.4133 6.6219 10.7169 6.01729C11.0303 5.41268 11.4564 4.93484 11.9951 4.58378C12.5437 4.22296 13.1705 4.04255 13.8758 4.04255C14.3166 4.04255 14.7133 4.12057 15.0659 4.2766C15.4283 4.42287 15.7417 4.60816 16.0062 4.83245V4.21808H17.211V9.98138C17.211 10.352 17.2991 10.5957 17.4754 10.7128C17.6615 10.82 17.8623 10.8737 18.0778 10.8737L17.7987 11.8976C16.8584 11.8976 16.2902 11.5173 16.0943 10.7566C15.8691 11.0687 15.5605 11.3564 15.1687 11.6197C14.7867 11.8732 14.297 12 13.6995 12ZM13.9933 10.8298C14.3655 10.8298 14.7182 10.742 15.0512 10.5665C15.3842 10.3812 15.6634 10.152 15.8887 9.87899V5.79787C15.6242 5.61259 15.3303 5.46631 15.0071 5.35904C14.6937 5.24202 14.3606 5.18351 14.008 5.18351C13.5379 5.18351 13.1216 5.30541 12.7592 5.5492C12.4065 5.78324 12.1274 6.1148 11.9217 6.54388C11.716 6.96321 11.6131 7.45567 11.6131 8.02128C11.6131 8.56738 11.716 9.05496 11.9217 9.48404C12.1274 9.90337 12.4114 10.2349 12.7738 10.4787C13.1363 10.7128 13.5428 10.8298 13.9933 10.8298Z" fill="white"/>
<path d="M22.1651 12C21.7145 12 21.308 11.9171 20.9456 11.7513C20.5832 11.5758 20.2943 11.2979 20.0788 10.9176C19.8731 10.5372 19.7702 10.0448 19.7702 9.44016V1H21.0925V9.30851C21.0925 9.83511 21.2003 10.2252 21.4158 10.4787C21.6411 10.7323 21.9496 10.859 22.3414 10.859C22.5275 10.859 22.7087 10.8395 22.885 10.8005C23.0711 10.7518 23.2279 10.6981 23.3552 10.6396L23.6784 11.7074C23.5021 11.7855 23.2817 11.8537 23.0173 11.9122C22.7626 11.9707 22.4785 12 22.1651 12Z" fill="white"/>
<path d="M27.9254 12C27.2005 12 26.5492 11.8342 25.9713 11.5027C25.3934 11.1613 24.9379 10.6933 24.6049 10.0984C24.2816 9.49379 24.12 8.80142 24.12 8.02128C24.12 7.20213 24.2865 6.49512 24.6195 5.90027C24.9526 5.30541 25.408 4.84707 25.9859 4.52527C26.5639 4.20346 27.2103 4.04255 27.9254 4.04255C28.6404 4.04255 29.282 4.20346 29.8501 4.52527C30.428 4.84707 30.8834 5.30541 31.2165 5.90027C31.5593 6.48537 31.7307 7.18262 31.7307 7.99202C31.7307 8.80142 31.5642 9.50842 31.2312 10.113C30.8981 10.7079 30.4427 11.1711 29.8648 11.5027C29.2967 11.8342 28.6502 12 27.9254 12ZM27.9254 10.8298C28.6992 10.8298 29.3016 10.5714 29.7325 10.0545C30.1635 9.52793 30.379 8.85018 30.379 8.02128C30.379 7.51418 30.2713 7.05097 30.0558 6.63165C29.8403 6.20257 29.5464 5.86126 29.1742 5.60771C28.8118 5.34441 28.3955 5.21277 27.9254 5.21277C27.1516 5.21277 26.5492 5.46631 26.1182 5.9734C25.6872 6.4805 25.4717 7.15337 25.4717 7.99202C25.4717 8.49911 25.5795 8.97207 25.7949 9.4109C26.0104 9.83998 26.2994 10.1862 26.6618 10.4495C27.034 10.703 27.4552 10.8298 27.9254 10.8298Z" fill="white"/>
<path d="M34.2698 11.8245V4.21808H35.5481V5.49069C35.8223 5.08112 36.17 4.7398 36.5912 4.46676C37.0222 4.18395 37.5315 4.04255 38.1192 4.04255C38.9812 4.04255 39.6228 4.30098 40.044 4.81782C40.4749 5.33466 40.6904 6.01729 40.6904 6.86569V11.8245H39.3681V7.01197C39.3681 6.46587 39.2359 6.02704 38.9714 5.69548C38.7167 5.36392 38.3592 5.19814 37.8989 5.19814C37.4483 5.19814 37.0222 5.35904 36.6206 5.68085C36.219 5.99291 35.8762 6.36347 35.5921 6.79255V11.8245H34.2698Z" fill="white"/>
<path d="M5.12847 12C4.41344 12 3.76207 11.9074 3.17437 11.7221C2.58667 11.527 2.09202 11.2735 1.69043 10.9614L2.39567 9.79122C2.74829 10.0838 3.14499 10.3227 3.58576 10.508C4.02654 10.6933 4.54077 10.7859 5.12847 10.7859C5.83371 10.7859 6.39203 10.6396 6.80342 10.3471C7.2148 10.0545 7.4205 9.65957 7.4205 9.16223C7.4205 8.87943 7.36173 8.63076 7.24419 8.41622C7.12665 8.19193 6.89647 7.97739 6.55364 7.77261C6.22061 7.55807 5.72597 7.3289 5.0697 7.08511C4.36446 6.81206 3.80125 6.53901 3.38007 6.26596C2.95888 5.98316 2.65524 5.66622 2.46913 5.31516C2.29282 4.95434 2.20467 4.53014 2.20467 4.04255C2.20467 3.55496 2.3369 3.11613 2.60136 2.72606C2.87562 2.32624 3.27232 2.00931 3.79146 1.77527C4.32038 1.53147 4.95706 1.40957 5.70148 1.40957C6.30877 1.40957 6.85239 1.47296 7.33235 1.59973C7.82209 1.71675 8.29715 1.88741 8.75752 2.1117L8.24328 3.29654C7.91025 3.10151 7.51845 2.9406 7.06788 2.81383C6.62711 2.6773 6.16184 2.60904 5.67209 2.60904C5.02562 2.60904 4.51629 2.73581 4.14408 2.98936C3.77187 3.24291 3.58576 3.56959 3.58576 3.96941C3.58576 4.22296 3.63963 4.44725 3.74738 4.64229C3.85512 4.83732 4.06572 5.02748 4.37915 5.21277C4.70239 5.39805 5.18234 5.60771 5.81902 5.84176C6.58303 6.12456 7.18542 6.42199 7.62619 6.73404C8.07676 7.0461 8.3951 7.38741 8.58121 7.75798C8.76731 8.11879 8.86036 8.53324 8.86036 9.00133C8.86036 9.63519 8.69875 10.1764 8.37551 10.625C8.06207 11.0736 7.6213 11.4149 7.05319 11.6489C6.49487 11.883 5.8533 12 5.12847 12Z" stroke="#BDBDBD" stroke-width="2" mask="url(#path-1-outside-1_0_172)"/>
<path d="M13.6995 12C13.0628 12 12.4849 11.8391 11.9658 11.5173C11.4466 11.1955 11.0303 10.742 10.7169 10.1569C10.4133 9.56206 10.2614 8.8648 10.2614 8.06516C10.2614 7.30452 10.4133 6.6219 10.7169 6.01729C11.0303 5.41268 11.4564 4.93484 11.9951 4.58378C12.5437 4.22296 13.1705 4.04255 13.8758 4.04255C14.3166 4.04255 14.7133 4.12057 15.0659 4.2766C15.4283 4.42287 15.7417 4.60816 16.0062 4.83245V4.21808H17.211V9.98138C17.211 10.352 17.2991 10.5957 17.4754 10.7128C17.6615 10.82 17.8623 10.8737 18.0778 10.8737L17.7987 11.8976C16.8584 11.8976 16.2902 11.5173 16.0943 10.7566C15.8691 11.0687 15.5605 11.3564 15.1687 11.6197C14.7867 11.8732 14.297 12 13.6995 12ZM13.9933 10.8298C14.3655 10.8298 14.7182 10.742 15.0512 10.5665C15.3842 10.3812 15.6634 10.152 15.8887 9.87899V5.79787C15.6242 5.61259 15.3303 5.46631 15.0071 5.35904C14.6937 5.24202 14.3606 5.18351 14.008 5.18351C13.5379 5.18351 13.1216 5.30541 12.7592 5.5492C12.4065 5.78324 12.1274 6.1148 11.9217 6.54388C11.716 6.96321 11.6131 7.45567 11.6131 8.02128C11.6131 8.56738 11.716 9.05496 11.9217 9.48404C12.1274 9.90337 12.4114 10.2349 12.7738 10.4787C13.1363 10.7128 13.5428 10.8298 13.9933 10.8298Z" stroke="#BDBDBD" stroke-width="2" mask="url(#path-1-outside-1_0_172)"/>
<path d="M22.1651 12C21.7145 12 21.308 11.9171 20.9456 11.7513C20.5832 11.5758 20.2943 11.2979 20.0788 10.9176C19.8731 10.5372 19.7702 10.0448 19.7702 9.44016V1H21.0925V9.30851C21.0925 9.83511 21.2003 10.2252 21.4158 10.4787C21.6411 10.7323 21.9496 10.859 22.3414 10.859C22.5275 10.859 22.7087 10.8395 22.885 10.8005C23.0711 10.7518 23.2279 10.6981 23.3552 10.6396L23.6784 11.7074C23.5021 11.7855 23.2817 11.8537 23.0173 11.9122C22.7626 11.9707 22.4785 12 22.1651 12Z" stroke="#BDBDBD" stroke-width="2" mask="url(#path-1-outside-1_0_172)"/>
<path d="M27.9254 12C27.2005 12 26.5492 11.8342 25.9713 11.5027C25.3934 11.1613 24.9379 10.6933 24.6049 10.0984C24.2816 9.49379 24.12 8.80142 24.12 8.02128C24.12 7.20213 24.2865 6.49512 24.6195 5.90027C24.9526 5.30541 25.408 4.84707 25.9859 4.52527C26.5639 4.20346 27.2103 4.04255 27.9254 4.04255C28.6404 4.04255 29.282 4.20346 29.8501 4.52527C30.428 4.84707 30.8834 5.30541 31.2165 5.90027C31.5593 6.48537 31.7307 7.18262 31.7307 7.99202C31.7307 8.80142 31.5642 9.50842 31.2312 10.113C30.8981 10.7079 30.4427 11.1711 29.8648 11.5027C29.2967 11.8342 28.6502 12 27.9254 12ZM27.9254 10.8298C28.6992 10.8298 29.3016 10.5714 29.7325 10.0545C30.1635 9.52793 30.379 8.85018 30.379 8.02128C30.379 7.51418 30.2713 7.05097 30.0558 6.63165C29.8403 6.20257 29.5464 5.86126 29.1742 5.60771C28.8118 5.34441 28.3955 5.21277 27.9254 5.21277C27.1516 5.21277 26.5492 5.46631 26.1182 5.9734C25.6872 6.4805 25.4717 7.15337 25.4717 7.99202C25.4717 8.49911 25.5795 8.97207 25.7949 9.4109C26.0104 9.83998 26.2994 10.1862 26.6618 10.4495C27.034 10.703 27.4552 10.8298 27.9254 10.8298Z" stroke="#BDBDBD" stroke-width="2" mask="url(#path-1-outside-1_0_172)"/>
<path d="M34.2698 11.8245V4.21808H35.5481V5.49069C35.8223 5.08112 36.17 4.7398 36.5912 4.46676C37.0222 4.18395 37.5315 4.04255 38.1192 4.04255C38.9812 4.04255 39.6228 4.30098 40.044 4.81782C40.4749 5.33466 40.6904 6.01729 40.6904 6.86569V11.8245H39.3681V7.01197C39.3681 6.46587 39.2359 6.02704 38.9714 5.69548C38.7167 5.36392 38.3592 5.19814 37.8989 5.19814C37.4483 5.19814 37.0222 5.35904 36.6206 5.68085C36.219 5.99291 35.8762 6.36347 35.5921 6.79255V11.8245H34.2698Z" stroke="#BDBDBD" stroke-width="2" mask="url(#path-1-outside-1_0_172)"/>
</svg>
