<svg width="43" height="28" viewBox="0 0 43 28" fill="none" xmlns="http://www.w3.org/2000/svg">
<path d="M14.6904 28H18.941L17.7036 26.7625C17.3754 26.4344 16.9303 26.25 16.4662 26.25H14.6904C7.92493 26.25 2.44043 20.7655 2.44043 14C2.44043 7.2345 7.92493 1.75001 14.6904 1.75H28.6904C35.4559 1.75 40.9404 7.2345 40.9404 14C40.9404 20.7655 35.4559 26.25 28.6904 26.25H23.4533C22.7571 26.25 22.0894 25.9734 21.5971 25.4812L20.1474 24.0314C19.327 23.211 18.2141 22.75 17.0538 22.75H14.6904C9.85791 22.75 5.94043 18.8325 5.94043 14C5.94043 9.16748 9.85791 5.25 14.6904 5.25H28.6904C33.5229 5.25 37.4404 9.16748 37.4404 14C37.4404 18.8325 33.5229 22.75 28.6904 22.75H25.3277C24.6315 22.75 23.9638 22.4734 23.4715 21.9812L22.0217 20.5314C21.2013 19.711 20.0885 19.25 18.9282 19.25H14.6904C11.791 19.25 9.44043 16.8995 9.44043 14C9.44043 11.1005 11.791 8.75 14.6904 8.75H28.6904C31.5899 8.75 33.9404 11.1005 33.9404 14C33.9404 16.8641 31.6469 19.1926 28.7963 19.249L28.7957 19.25H27.5152C26.819 19.25 26.1513 18.9734 25.659 18.4812L24.2092 17.0314C23.5361 16.3582 22.666 15.927 21.7344 15.794L21.6904 15.75H14.6904C13.7239 15.75 12.9404 14.9665 12.9404 14C12.9404 13.0335 13.7239 12.25 14.6904 12.25H28.6904C29.6569 12.25 30.4404 13.0335 30.4404 14C30.4404 14.9665 29.6569 15.75 28.6904 15.75H25.1904L26.4279 16.9875C26.756 17.3156 27.2012 17.5 27.6653 17.5H28.6904C30.6234 17.5 32.1904 15.933 32.1904 14C32.1904 12.067 30.6234 10.5 28.6904 10.5H14.6904C12.7574 10.5 11.1904 12.067 11.1904 14C11.1904 15.933 12.7574 17.5 14.6904 17.5H21.1157C21.8119 17.5 22.4795 17.7766 22.9718 18.2688L24.4216 19.7186C25.2421 20.539 26.3549 21 27.5152 21H29.1279V20.9866C32.7901 20.7607 35.6904 17.719 35.6904 14C35.6904 10.134 32.5564 7 28.6904 7H14.6904C10.8245 7 7.69043 10.134 7.69043 14C7.69043 17.866 10.8245 21 14.6904 21H18.9282C19.6244 21 20.292 21.2766 20.7843 21.7688L22.2341 23.2186C23.0546 24.039 24.1674 24.5 25.3277 24.5H28.6904C34.4894 24.5 39.1904 19.799 39.1904 14C39.1904 8.20099 34.4894 3.5 28.6904 3.5H14.6904C8.89142 3.5 4.19043 8.20099 4.19043 14C4.19043 19.799 8.89142 24.5 14.6904 24.5H17.0538C17.75 24.5 18.4177 24.7766 18.91 25.2688L20.3597 26.7186C21.1802 27.539 22.293 28 23.4533 28H28.6904C36.4224 28 42.6904 21.732 42.6904 14C42.6904 6.26801 36.4224 -6.75951e-07 28.6904 0L14.6904 2.89285e-06C6.95844 3.5688e-06 0.690429 6.26802 0.69043 14C0.69043 21.732 6.95845 28 14.6904 28Z" fill="white"/>
</svg>
